<?xml version="1.0" encoding="UTF-8" standalone="no"?><!DOCTYPE svg PUBLIC "-//W3C//DTD SVG 1.1//EN" "http://www.w3.org/Graphics/SVG/1.1/DTD/svg11.dtd"><svg width="100%" height="100%" viewBox="0 0 82 82" version="1.1" xmlns="http://www.w3.org/2000/svg" xmlns:xlink="http://www.w3.org/1999/xlink" xml:space="preserve" xmlns:serif="http://www.serif.com/" style="fill-rule:evenodd;clip-rule:evenodd;stroke-linejoin:round;stroke-miterlimit:2;"><path id="path4230" d="M49.16,1.026c-10.074,0 -24.841,13.921 -26.856,49.874c0.134,-2.866 -16.39,-3.042 -17.957,0.092c-1.344,2.642 6.894,3.675 8.461,5.153c-1.881,2.282 -4.122,3.04 -6.853,2.323c-0.717,-0.178 -1.473,-0.266 -2.189,-0.311c-1.657,-0.135 -3.049,0.406 -3.587,2.062c-0.582,1.657 0.321,3.086 1.709,3.713c1.791,0.851 3.758,1.476 5.683,1.701c2.373,0.269 4.792,0.042 7.165,0.042c-1.836,4.432 -4.969,6.315 -9.446,5.598c-2.239,-0.358 -4.03,0.539 -4.791,2.375c-0.806,2.014 -0.317,4.344 1.743,5.463c1.701,0.941 3.757,1.614 5.683,1.659c8.686,0.089 16.034,-3.54 22.571,-8.958c8.462,-6.984 12.582,-7.029 20.954,0c5.552,4.657 11.776,7.793 18.985,8.823c3,0.448 5.999,0.445 8.73,-1.077c2.194,-1.254 3.085,-3.579 2.324,-5.683c-0.806,-2.149 -2.593,-3.004 -5.279,-2.467c-3.895,0.806 -8.059,-1.968 -9,-6.087c0.582,0.09 1.074,0.182 1.566,0.228c3.806,0.268 7.657,0.759 11.105,-1.39c1.388,-0.85 2.459,-2.107 1.877,-3.898c-0.582,-1.746 -2.104,-2.196 -3.805,-2.062c-0.806,0.045 -1.61,0.27 -2.416,0.404c-2.642,0.448 -4.793,-0.31 -6.449,-2.593c1.791,-1.254 9.092,-1.256 8.242,-3.763c-0.985,-2.91 -16.837,-4.031 -16.569,-1.255c-3.76,-37.161 -0.945,-49.966 -11.601,-49.966Zm-14.009,23.287c1.567,-0 2.863,1.295 2.863,2.862c-0,1.567 -1.296,2.863 -2.863,2.863c-1.567,-0 -2.862,-1.296 -2.862,-2.863c-0,-1.567 1.295,-2.862 2.862,-2.862Zm11.147,-0c1.612,-0 2.862,1.295 2.862,2.862c0,1.567 -1.295,2.863 -2.862,2.863c-1.567,-0 -2.863,-1.296 -2.863,-2.863c0,-1.567 1.296,-2.862 2.863,-2.862Z" style="fill:#fff;fill-rule:nonzero;"/></svg>